<?xml version="1.0" encoding="UTF-8"?><svg version="1.1" viewBox="0 0 100 112" xmlns="http://www.w3.org/2000/svg" xmlns:xlink="http://www.w3.org/1999/xlink"><!--Generated by IJSVG (https://github.com/iconjar/IJSVG)--><defs><path d="M50,35.86c-5.93,0 -11.62,4.81 -11.62,10.73v12.52l2.84217e-14,3.50191e-07c2.23492e-07,1.48012 1.19988,2.68 2.68,2.68c1.48012,-2.23492e-07 2.68,-1.19988 2.68,-2.68l1.53,19.06l3.80873e-08,4.84116e-07c0.146153,1.85771 1.69655,3.29052 3.56,3.29h2.34l3.64209e-08,1.01892e-11c1.86345,0.000520557 3.41385,-1.43229 3.56,-3.29l1.53,-19.06l2.84217e-14,3.50191e-07c2.23492e-07,1.48012 1.19988,2.68 2.68,2.68c1.48012,-2.23492e-07 2.68,-1.19988 2.68,-2.68v-12.52c-4.70479e-07,-5.92 -5.69,-10.73 -11.62,-10.73Z" id="b"></path><path d="M55.36,28.2v1.08956e-07c0,2.96025 -2.39975,5.36 -5.36,5.36c-2.96025,0 -5.36,-2.39975 -5.36,-5.36c0,-8.69517e-08 0,-1.0869e-07 0,-1.95641e-07v-2.68l5.68434e-14,7.00382e-07c-4.46985e-07,-2.96025 2.39975,-5.36 5.36,-5.36c2.96025,-4.46985e-07 5.36,2.39975 5.36,5.36c0,4.34758e-08 1.42109e-14,1.52165e-07 2.13163e-14,1.95641e-07Z" id="a"></path></defs><path d="M90.5,56l1.75431e-07,0.00374627c-1.42109e-14,-22.0914 -17.9086,-40 -40,-40c-22.0914,7.10543e-15 -40,17.9086 -40,40c0,5.68809 1.21314,11.3108 3.55846,16.4928h72.8815l6.1272e-07,-1.35057e-06c2.35079,-5.18164 3.56467,-10.8066 3.56,-16.4966Z" fill="#E8F4FA"></path><path fill="#FFF" d="M14.06,72.5l-2.10036e-06,-4.63966e-06c9.11063,20.1253 32.811,29.0544 52.9363,19.9438c8.84893,-4.00588 15.9379,-11.0948 19.9437,-19.9437Z"></path><g stroke-linecap="round" stroke-width="1" stroke="#191816" fill="none" stroke-linejoin="round"><path d="M11,72.5h78"></path><path d="M6.5,72.5h2.5"></path><path d="M91,72.5h2.5"></path></g><path opacity="0.15" fill="#231F20" d="M56.5054,80.8167c3.59282,0.675607 3.59282,1.77098 0,2.44659c-3.59282,0.675607 -9.41794,0.675607 -13.0108,0c-3.59282,-0.675607 -3.59282,-1.77098 0,-2.44659c3.59282,-0.675607 9.41794,-0.675607 13.0108,0"></path><use xlink:href="#a" fill="#E8F4FA"></use><use fill="#DAEDF7" stroke="#191816" stroke-linecap="round" stroke-linejoin="round" stroke-width="1" xlink:href="#a"></use><path d="M50,20.15l2.17675e-08,3.90799e-14c-2.96025,-5.16394e-06 -5.36,2.39974 -5.36001,5.35999c-5.82019e-09,0.00333644 3.10362e-06,0.00667289 9.32832e-06,0.0100093v1.79l-5.036e-08,-3.18554e-06c0.00472174,0.298681 0.03483,0.59642 0.0899995,0.89l-5.5271e-09,3.37988e-08c0.475959,-2.91054 3.22126,-4.88416 6.1318,-4.4082c2.26364,0.370172 4.03803,2.14456 4.4082,4.4082l2.92879e-08,-1.55852e-07c0.0551696,-0.29358 0.0852781,-0.591319 0.09,-0.89v-1.79l6.34193e-08,-3.40507e-05c0.00550404,-2.96024 -2.38978,-5.36445 -5.35002,-5.36996c-0.00333624,-6.20315e-06 -0.00667249,-9.29141e-06 -0.0100087,-9.26478e-06Z" fill="#FFF"></path><use fill="#E8F4FA" xlink:href="#b"></use><path d="M50,35.86c-5.93,0 -11.62,4.81 -11.62,10.73l0.89,4.47c0,-5.92 2.42,-10.73 10.73,-10.73c8.31,0 10.73,4.81 10.73,10.73l0.89,-4.47c-7.10543e-15,-5.92 -5.69,-10.73 -11.62,-10.73Z" fill="#FFF"></path><use fill="none" stroke="#191816" stroke-linecap="round" stroke-linejoin="round" stroke-width="1" xlink:href="#a"></use><g stroke-linecap="round" stroke-width="1" stroke="#191816" fill="none" stroke-linejoin="round"><path d="M43.74,59.11v-11.62"></path><path d="M56.26,59.11v-11.62"></path><use xlink:href="#b"></use></g></svg>