<svg xmlns="http://www.w3.org/2000/svg" style="display: none;"><symbol id="icon-markdown" viewBox="0 0 640 512"><title>Markdown</title><g class="nc-icon-wrapper" fill="currentColor"><path d="M593.8 59.1H46.2C20.7 59.1 0 79.8 0 105.2v301.5c0 25.5 20.7 46.2 46.2 46.2h547.7c25.5 0 46.2-20.7 46.1-46.1V105.2c0-25.4-20.7-46.1-46.2-46.1zM338.5 360.6H277v-120l-61.5 76.9-61.5-76.9v120H92.3V151.4h61.5l61.5 76.9 61.5-76.9h61.5v209.2zm135.3 3.1L381.5 256H443V151.4h61.5V256H566z"/></g></symbol><symbol id="icon-gulp" viewBox="0 0 128 128"><title>Gulp Plain</title><g class="nc-icon-wrapper"><path fill-rule="evenodd" clip-rule="evenodd" fill="#EB4A4B" d="M36.965 35.459c.877 9.232 1.747 18.412 2.637 27.798 1.451-2.495 2.501-4.888 4.085-6.848 1.475-1.826 3.334-3.511 5.357-4.678 2.641-1.524 6.104-.089 6.96 2.614.23.725-.319 1.697-.511 2.556-.646-.341-1.479-.529-1.901-1.051-1.793-2.217-2.873-2.479-4.856-.563-3.699 3.576-5.779 8.056-6.573 13.091-.153.974.456 2.067.713 3.105 1.011-.348 2.185-.476 3.002-1.084 2.656-1.977 4.302-4.666 5.21-7.88.197-.696 1.265-1.145 1.933-1.708.32.658 1.05 1.433.897 1.954a373.814 373.814 0 0 1-4.536 14.429c-.162.484-1.051.725-1.604 1.079-.223-.636-.692-1.302-.617-1.901.168-1.358.605-2.683.91-3.927l-7.24 3.333c.405 4.622.825 9.807 1.323 14.985.382 3.954 1.029 4.978 4.923 5.728 4.544.875 9.173 1.434 13.792 1.774a60.391 60.391 0 0 0 20.23-1.904c2.472-.664 3.458-2.29 3.635-4.717.162-2.235.524-4.456.775-6.685.493-4.391.972-8.783 1.476-13.358-1.667 1.056-2.978 2.238-4.511 2.739-1.116.365-2.524-.169-3.803-.303.245-1.174.23-2.497.796-3.487.922-1.618 2.224-3.021 3.364-4.515l-.491-.591c-.817.483-1.832.8-2.413 1.485-1.182 1.394-2.339 2.886-3.13 4.52-1.324 2.735-2.333 5.622-3.518 8.426-.515 1.216-.959 3.076-2.684 2.366-1.845-.761-.547-2.386-.114-3.542.689-1.844 1.599-3.606 2.215-4.962-1.746.208-3.516.459-5.294.614-.752.064-1.646-.348-2.261-.07-2.045.924-3.341.553-3.766-1.711-.947.615-1.749 1.448-2.694 1.672-1.147.273-2.703.452-3.543-.121-.673-.459-.918-2.184-.688-3.196.457-2.012 1.311-3.946 2.122-5.859.502-1.185 1.007-3.077 2.701-2.253 1.674.813.154 2.185-.232 3.286-.599 1.702-1.209 3.401-1.813 5.101l.96.58c.914-.794 2.053-1.441 2.693-2.415 1.048-1.592 1.681-3.452 2.673-5.086.411-.677 1.296-1.065 1.967-1.584.136.862.462 1.748.354 2.58-.107.841-.698 1.61-.981 2.442-.425 1.246-.768 2.52-1.2 3.969 2.043.078 2.918-.782 3.495-2.299 1.826-4.793 3.672-9.581 5.679-14.3.343-.808 1.509-1.264 2.296-1.884.091.974.525 2.078.216 2.899-1.645 4.349-3.492 8.62-5.228 12.935-.293.727-.387 1.534-.572 2.304 3.059-1.375 5.612-2.895 6.544-6.146.228-.79 1.162-1.377 1.771-2.058l1.416 1.5c.43-.362.824-.774 1.291-1.075 1.47-.947 3.053-1.782 4.603-.315 1.604 1.517.39 2.995-.448 4.307-.912 1.431-2.029 2.73-3.057 4.086 2.312-1.49 5.469-2.158 5.889-5.378 1.024-7.865 1.924-15.746 2.837-23.625.271-2.332.416-4.679.627-7.109-18.21 4.409-36.029 4.436-54.088-.069zm7.816 61.369c.877 2.317 2.209 4.593 2.558 7.011.737 5.147.924 10.372 1.446 15.554.076.755.565 1.792 1.175 2.124 8.98 4.88 18.047 5.726 27.209.389 1.367-.796 1.62-1.847 1.797-3.325.857-7.181-1.051-14.798 3.54-21.56-12.856 3.189-25.403 3.288-37.725-.193zm30.991-60.08c4.362-.421 8.671-1.445 12.985-2.291.813-.159 1.535-.778 2.299-1.185-1.007-.885-1.878-1.311-2.788-1.418-4.53-.535-9.076-.947-13.603-1.508-.684-.085-1.905-.929-1.854-1.083 1.321-3.98 1.256-8.485 4.254-11.839 3.789-4.24 7.617-8.443 11.416-12.648-2.826-3.04-2.864-3.044-5.425-.383-1.448 1.504-2.771 3.15-4.342 4.512-5.813 5.038-9.896 11.005-10.692 18.872-.183 1.805-1.174 2.457-3.069 2.485-6.256.091-12.519.263-18.761.674-3.093.203-6.148.997-9.221 1.523l-.028 1.149c1.923.593 3.809 1.372 5.773 1.749 10.944 2.098 21.991 2.458 33.056 1.391zM72.276 34c-2.477 2-4.524 2-6.501 0h6.501z"/></g></symbol><symbol id="icon-migration" viewBox="0 0 48 48"><title>migration</title><g class="nc-icon-wrapper"><line data-cap="butt" fill="none" stroke="currentColor" stroke-miterlimit="10" x1="24" y1="45" x2="24" y2="17" stroke-linejoin="miter" stroke-linecap="butt"/> <polyline fill="none" stroke="currentColor" stroke-linecap="square" stroke-miterlimit="10" points="17,24 24,17 31,24 " stroke-linejoin="miter"/> <path data-color="color-2" fill="none" stroke-linecap="square" stroke-miterlimit="10" d="M32,33h6 c4.418,0,8-3.582,8-8c0-4.418-3.582-8-8-8c-0.017,0-0.033,0.005-0.05,0.005C37.435,9.187,30.948,3,23,3 C14.962,3,8.419,9.328,8.037,17.271C4.573,18.151,2,21.263,2,25c0,4.418,3.582,8,8,8h6" stroke-linejoin="miter"/></g></symbol><symbol id="icon-search" viewBox="0 0 24 24"><title>search</title><g class="nc-icon-wrapper" fill="currentColor"><defs/><circle class="a" cx="9.813" cy="9.812" r="9.063" transform="rotate(-23.025 9.813 9.812)" fill="none" stroke="currentColor" stroke-linecap="round" stroke-linejoin="round" stroke-width="1.5px"/><path class="a" d="M16.221 16.22l7.029 7.03" fill="none" stroke="currentColor" stroke-linecap="round" stroke-linejoin="round" stroke-width="1.5px"/></g></symbol><symbol id="icon-cloudinary" viewBox="0 0 155.496 155.496"><title>cloudinary vertical logo for white bg</title><g class="nc-icon-wrapper"><path fill="#0071CE" d="M122.467 99.131a3.826 3.826 0 0 1-1.188-7.463c7.278-2.382 11.98-8.761 11.98-16.252 0-9.487-7.718-17.206-17.205-17.206-.659 0-1.368.052-2.231.164l-3.741.485-.537-3.735C107.246 39.108 93.294 27.03 77.091 27.03c-13.395 0-25.32 8.019-30.377 20.43l-.952 2.335-2.52.046c-11.581.213-21.003 9.804-21.003 21.379 0 8.45 4.906 16.156 12.498 19.631a3.826 3.826 0 0 1-3.184 6.958C21.247 93.091 14.587 82.655 14.587 71.22c0-14.88 11.465-27.345 26.028-28.876 6.71-14.03 20.773-22.965 36.477-22.965 18.796 0 35.135 13.178 39.372 31.184 13.519.219 24.45 11.284 24.45 24.854 0 10.693-6.934 20.146-17.253 23.523-.398.13-.799.191-1.194.191z"/><path fill="#DC8327" d="M64.002 100.91l-.002-.001-.003-.001h-.001l-.001-.001-.001-.001-.001-.001h-.001l-.001-.001c.001-.001-.001-.001-.001-.001l-.001-.001h-.001l-.001-.001-.001-.001-.003-.001-.001-.001h-.001l-.001-.001-.001-.001-.003-.001c-.001.001-.001-.001-.002-.001l-.001-.001-.002-.001-.001-.001-.004-.001-.004-.001-.002-.001h-.001l-.003-.001-.003-.001h-.001l-.002-.001-.001-.001h-.001a.647.647 0 0 0-.188-.037h-.006-.001-.002l-.001-.001H63.738h.002-.006a3.028 3.028 0 0 1-3.021-3V64.18h2.58c.393.017.661-.285.661-.648a.648.648 0 0 0-.402-.6l-12.379-8.544a.65.65 0 0 0-.737 0L37.96 62.999a.65.65 0 0 0 .368 1.182h2.58l.002 33.674c.013 2.328 1.883 4.228 4.262 4.288a.716.716 0 0 0 .08.005h18.492a.649.649 0 0 0 .438-.18l.001-.001.005-.005.003-.003.001-.001.001-.001.001-.001.001-.001.001-.001.001-.001.002-.002.001-.001.001-.001.001-.001a.647.647 0 0 0 .183-.447v-.003.002-.006a.655.655 0 0 0-.383-.584z"/><path fill="#F4B21B" d="M90.771 100.91l-.002-.001-.003-.001h-.001l-.001-.001-.001-.001h-.001l-.001-.001-.001-.001c.001-.001-.001-.001-.002-.001l-.001-.001h-.001l-.001-.001c-.002.001-.002-.001-.002-.001l-.002-.001-.001-.001h-.001l-.001-.001-.001-.001-.002-.001c-.001.001-.001-.001-.003-.001l-.001-.001-.001-.001-.002-.001-.004-.001-.004-.001-.002-.001-.002-.001-.002-.001-.002-.001c-.003 0-.001 0-.002-.001l-.002-.001-.001-.001h.003a.647.647 0 0 0-.188-.037h-.005-.003l-.001-.001H90.514h-.003-.008a3.028 3.028 0 0 1-3.02-3V71.719h2.579a.648.648 0 0 0 .272-1.248l-12.38-8.544a.65.65 0 0 0-.737 0l-12.476 8.611a.65.65 0 0 0 .368 1.182h2.568l.002 26.135c.011 2.329 1.884 4.23 4.264 4.289a.68.68 0 0 0 .078.004h18.492a.649.649 0 0 0 .438-.18l.001-.001c.002-.002.006-.004.005-.005l.003-.003.001-.001.001-.001.001-.001.001-.001.001-.001.001-.001c.003-.001.002-.001.002-.002l.001-.001.001-.001.001-.001a.647.647 0 0 0 .183-.447v-.003.002-.006a.655.655 0 0 0-.383-.584z"/><path fill="#F2D864" d="M117.549 100.91l-.002-.001-.003-.001h-.001l-.001-.001-.001-.001-.001-.001h-.001l-.001-.001-.001-.001-.001-.001h-.001l-.001-.001c-.001.001-.001-.001-.002-.001.001-.001-.001-.001-.002-.001l-.001-.001h-.001l-.001-.001-.001-.001-.002-.001c-.001.001-.001-.001-.003-.001l-.001-.001c.001-.001-.001-.001-.002-.001l-.001-.001-.004-.001-.004-.001-.002-.001-.002-.001-.002-.001-.002-.001c-.003 0-.003 0-.002-.001l-.001-.001-.002-.001h-.001a.647.647 0 0 0-.188-.037H117.298l-.002-.001h-.002-.003-.006-.001-.002-.005-.001a3.028 3.028 0 0 1-3.02-3V79.255h2.586c.365-.009.661-.285.661-.648a.648.648 0 0 0-.402-.6l-12.38-8.544a.65.65 0 0 0-.737 0l-12.476 8.61a.65.65 0 0 0 .368 1.182h2.573l.002 18.599c.013 2.329 1.885 4.231 4.264 4.289a.68.68 0 0 0 .078.004h18.492a.649.649 0 0 0 .438-.18l.001-.001.005-.005.003-.003.001-.001.001-.001.001-.001.001-.001.001-.001.001-.001c.003-.001.001-.001.002-.002l.001-.001.001-.001.001-.001a.647.647 0 0 0 .183-.447v-.003.003-.006a.643.643 0 0 0-.377-.584z"/><g><path fill="#0E2F5A" d="M46.942 118.858c-.619-.673-1.394-1.204-2.304-1.581-.927-.381-2.008-.577-3.211-.581-1.202.005-2.282.2-3.209.582a6.434 6.434 0 0 0-2.305 1.581 6.704 6.704 0 0 0-1.407 2.378c-.32.911-.482 1.912-.482 2.978 0 .81.084 1.6.25 2.351.161.73.425 1.423.786 2.062a5.868 5.868 0 0 0 1.394 1.637c.565.466 1.266.834 2.084 1.093.818.263 1.791.399 2.891.404 1.1-.005 2.072-.141 2.889-.404.819-.259 1.52-.627 2.084-1.093a5.857 5.857 0 0 0 1.397-1.64c.36-.638.624-1.332.785-2.061.168-.741.25-1.51.25-2.351a8.983 8.983 0 0 0-.482-2.977 6.744 6.744 0 0 0-1.41-2.378zm-1.899 7.241a5.117 5.117 0 0 1-.671 1.606 3.463 3.463 0 0 1-1.197 1.14c-.491.277-1.077.419-1.744.423-.669-.005-1.254-.147-1.742-.422a3.474 3.474 0 0 1-1.204-1.141 5.175 5.175 0 0 1-.671-1.606 8.041 8.041 0 0 1-.213-1.884c0-.698.075-1.354.222-1.952a4.845 4.845 0 0 1 .688-1.595c.319-.465.725-.83 1.207-1.087.481-.254 1.056-.385 1.707-.39h.005c.649.005 1.224.136 1.71.389.482.259.886.625 1.203 1.087.312.46.545.997.693 1.597.145.603.218 1.259.218 1.952a8.006 8.006 0 0 1-.211 1.883z"/><path fill="#0E2F5A" d="M58.076 131.443a5.317 5.317 0 0 0 1.557-.872 7.296 7.296 0 0 0 1.253-1.312l.088-.118h.439l.057.292v.541c0 .379.056.702.173.987.109.253.274.446.5.583.228.141.537.215.92.219.377-.004.686-.078.912-.218.228-.139.392-.331.504-.59.115-.28.171-.603.171-.982v-11.489a2.448 2.448 0 0 0-.16-.929 1.223 1.223 0 0 0-.519-.615c-.26-.158-.635-.241-1.112-.245-.469.004-.842.088-1.104.247-.25.156-.421.357-.523.613-.11.28-.164.592-.16.926v6.873c-.005.573-.109 1.067-.317 1.515a3.53 3.53 0 0 1-.814 1.119 3.66 3.66 0 0 1-1.11.697c-.42.161-.816.239-1.215.239-.65-.005-1.198-.145-1.631-.415a2.547 2.547 0 0 1-.979-1.147c-.202-.455-.305-.997-.305-1.61v-7.27a2.445 2.445 0 0 0-.161-.93 1.24 1.24 0 0 0-.519-.614c-.259-.158-.635-.242-1.112-.246-.472.004-.847.088-1.109.247a1.262 1.262 0 0 0-.518.613 2.426 2.426 0 0 0-.16.925v8.1c.009 1.01.157 1.86.442 2.522.284.658.665 1.187 1.133 1.572.477.392.995.666 1.584.838.574.168 1.144.25 1.743.25h.049c.745-.001 1.42-.108 2.003-.316z"/><path fill="#0E2F5A" d="M30.684 111.281a2.164 2.164 0 0 0-.965-.201c-.366 0-.692.068-.969.203a1.38 1.38 0 0 0-.595.577c-.145.262-.221.602-.225 1.011v17.102c.004.406.08.746.225 1.008.14.253.336.441.599.575.272.136.597.206.965.206.372 0 .689-.068.967-.207.261-.132.457-.32.597-.574.145-.262.221-.602.225-1.012v-17.101c-.005-.407-.08-.747-.225-1.008a1.383 1.383 0 0 0-.599-.579z"/><path fill="#0E2F5A" d="M147.617 117.861a1.94 1.94 0 0 0-.299-.532 1.711 1.711 0 0 0-.564-.442c-.237-.123-.539-.187-.9-.191-.323.004-.588.071-.803.204-.225.139-.41.327-.55.558a3.374 3.374 0 0 0-.357.874l-2.595 9.653h-.447l-.117-.214-2.68-9.721a1.786 1.786 0 0 0-.642-.981c-.326-.246-.724-.368-1.217-.372a1.785 1.785 0 0 0-.871.224c-.263.152-.467.35-.62.604-.157.253-.234.54-.239.88 0 .131.017.276.05.427.036.168.091.358.163.574.076.233.171.511.284.837l4.362 12.426-.021.085c-.113.454-.266.8-.452 1.027-.197.233-.42.381-.667.445-.18.043-.356.064-.527.064l-.107-.003h-.412a2.08 2.08 0 0 0-.869.165 1.217 1.217 0 0 0-.55.454c-.129.202-.195.456-.199.775 0 .287.074.543.225.78.155.243.391.434.725.585.344.161.807.245 1.381.249.616 0 1.157-.086 1.607-.257.455-.173.839-.42 1.175-.756.347-.347.659-.779.928-1.284.277-.535.538-1.155.775-1.84l4.819-13.657c.098-.265.171-.498.226-.708a2.19 2.19 0 0 0 .071-.506 1.417 1.417 0 0 0-.086-.426z"/><path fill="#0E2F5A" d="M120.863 129.552a5.996 5.996 0 0 1-.156-.766 8.446 8.446 0 0 1-.07-1.118v-6.988c-.004-.695-.156-1.293-.452-1.777-.304-.503-.724-.905-1.285-1.23-.567-.329-1.255-.576-2.044-.736a13.745 13.745 0 0 0-3.073-.235l-.104.009c-.403.017-.76.047-1.093.093l-.156.025c-.395.061-.727.13-1.014.212-.788.218-1.456.509-1.99.865-.533.357-.934.738-1.191 1.133-.259.398-.385.767-.385 1.128.004.236.063.448.181.642.119.196.286.352.509.476.223.119.49.183.789.187.255-.004.487-.068.68-.192.208-.136.423-.313.635-.526.237-.242.494-.477.763-.695a3.913 3.913 0 0 1 1.787-.785 3.65 3.65 0 0 1 .169-.023l.067-.007c.213-.027.447-.051.711-.054.507 0 .973.063 1.388.188.447.135.81.351 1.081.642.291.302.443.697.448 1.169-.005.464-.103.817-.299 1.084-.2.259-.464.443-.789.551-.283.096-.61.163-.971.199l-2.534.285c-.764.081-1.508.219-2.214.41-.673.188-1.267.451-1.761.783a3.45 3.45 0 0 0-1.153 1.289c-.279.533-.423 1.212-.428 2.019.004.6.129 1.154.373 1.641.243.487.566.893.985 1.241.413.343.89.61 1.416.795a4.92 4.92 0 0 0 1.638.278h.066c.683 0 1.342-.074 1.958-.22a5.64 5.64 0 0 0 .345-.092c.088-.026.173-.059.258-.092l.234-.087c.055-.019.111-.038.164-.061.306-.128.574-.261.817-.405a7.331 7.331 0 0 0 1.644-1.371l.484-.531.024.718c.013.387.092.754.238 1.092.138.312.354.559.657.752.303.193.73.293 1.267.297.294-.004.56-.062.805-.177a1.44 1.44 0 0 0 .571-.467c.136-.189.207-.413.211-.666 0-.123-.018-.247-.056-.389l-.145-.513zm-3.804-3.256c0 .424-.094.843-.279 1.244-.188.397-.45.744-.801 1.063a3.842 3.842 0 0 1-1.249.733 4.386 4.386 0 0 1-.708.184l-.121.023a5.542 5.542 0 0 1-.809.068c-.525-.005-.978-.092-1.351-.258a2.192 2.192 0 0 1-.916-.714 1.73 1.73 0 0 1-.335-1.031c0-.477.124-.883.367-1.207.236-.318.582-.571 1.026-.75a6.516 6.516 0 0 1 1.537-.384l1.508-.228c.156-.027.347-.064.561-.111.203-.044.409-.107.611-.186.184-.072.338-.166.471-.287l.488-.444v2.285z"/><path fill="#0E2F5A" d="M15.493 114.639a5.057 5.057 0 0 1 2.202-.494c.757.005 1.364.102 1.86.296.489.184.908.434 1.241.741.315.295.591.611.821.941.217.31.428.607.639.884.19.249.417.455.675.611.249.151.57.229.954.233.608-.004 1.068-.164 1.363-.474.301-.309.452-.76.452-1.343 0-.351-.107-.755-.319-1.2-.218-.446-.548-.9-.978-1.349a7.536 7.536 0 0 0-1.62-1.248c-.64-.377-1.394-.685-2.242-.915-.851-.232-1.809-.351-2.847-.356-1.275.004-2.448.188-3.487.544a8.844 8.844 0 0 0-2.718 1.503 8.93 8.93 0 0 0-1.949 2.271c-.529.882-.93 1.847-1.19 2.868a13.255 13.255 0 0 0-.399 3.268c.009 2.305.409 4.257 1.19 5.798.778 1.534 1.91 2.703 3.364 3.475 1.476.784 3.28 1.182 5.359 1.182a10.057 10.057 0 0 0 3.092-.488c.951-.323 1.791-.758 2.497-1.291.711-.541 1.268-1.149 1.654-1.806.388-.656.587-1.338.591-2.026a1.27 1.27 0 0 0-.273-.789 1.758 1.758 0 0 0-.726-.52 2.58 2.58 0 0 0-.99-.193 1.395 1.395 0 0 0-.795.239c-.238.168-.46.387-.673.667a40.53 40.53 0 0 0-.684.938 7.13 7.13 0 0 1-.837.984c-.324.32-.723.586-1.184.79-.471.204-1.032.31-1.67.315-1.054-.005-1.965-.207-2.709-.599a4.947 4.947 0 0 1-1.821-1.62 7.13 7.13 0 0 1-.992-2.324 11.616 11.616 0 0 1-.303-2.735c.005-1.135.152-2.163.437-3.057.292-.9.699-1.67 1.208-2.288a5.356 5.356 0 0 1 1.807-1.433z"/><path fill="#0E2F5A" d="M81.09 112.869c0-.4-.076-.739-.225-1.008a1.386 1.386 0 0 0-.599-.58c-.535-.264-1.377-.269-1.935.002a1.38 1.38 0 0 0-.595.577c-.144.261-.22.601-.225 1.012v5.933h-.454l-.143-.138a4.013 4.013 0 0 0-1.556-1.454 4.089 4.089 0 0 0-.565-.238c-.036-.013-.074-.023-.111-.033l-.083-.024a4.526 4.526 0 0 0-.431-.109l-.07-.018c-.075-.015-.128-.021-.181-.028l-.271-.035a6.249 6.249 0 0 0-.591-.033c-.839.005-1.594.138-2.242.397a5.219 5.219 0 0 0-1.707 1.089 6.182 6.182 0 0 0-1.212 1.639 8.244 8.244 0 0 0-.72 2.032 10.58 10.58 0 0 0-.241 2.277c.01 1.312.183 2.462.516 3.415.334.957.794 1.754 1.368 2.368a5.568 5.568 0 0 0 1.979 1.393 6.244 6.244 0 0 0 2.373.458c.315 0 .622-.022.912-.064a5.52 5.52 0 0 0 .883-.206 3.912 3.912 0 0 0 1.406-.813c.393-.35.701-.805.918-1.355l.073-.185h.49l.057.292v.656c.004.564.138.989.399 1.262.262.274.663.413 1.191.413.547 0 .953-.138 1.207-.41.254-.273.383-.699.383-1.265v-17.219zm-3.538 13.174a4.794 4.794 0 0 1-.618 1.54 3.227 3.227 0 0 1-1.131 1.099 2.736 2.736 0 0 1-.373.181c-.035.014-.074.025-.111.036l-.087.028c-.068.023-.136.046-.209.064-.044.011-.091.018-.137.026l-.058.009a1.949 1.949 0 0 1-.396.053l-.131.008a2.882 2.882 0 0 1-.188.01c-.617-.021-1.152-.165-1.604-.43a3.37 3.37 0 0 1-1.131-1.068 5.031 5.031 0 0 1-.653-1.52 7.325 7.325 0 0 1-.213-1.806c0-.417.031-.843.093-1.268.063-.434.172-.868.323-1.291.156-.43.373-.823.643-1.17a2.993 2.993 0 0 1 1.045-.856c.409-.21.912-.32 1.492-.325h.002c.078 0 .151.005.225.011l.128.008c.049.002.097.004.143.01.08.009.155.025.23.041l.102.019c.041.007.082.014.121.024.086.022.167.051.247.081l.072.025c.034.011.069.022.101.036.132.056.259.123.379.199.472.299.85.7 1.125 1.192a5.46 5.46 0 0 1 .587 1.574c.117.59.172 1.143.168 1.693a7.788 7.788 0 0 1-.186 1.767z"/><path fill="#0E2F5A" d="M132.772 119.493c.168-.263.255-.622.259-1.068a1.633 1.633 0 0 0-.253-.885 1.706 1.706 0 0 0-.692-.609c-.301-.155-.642-.231-1.046-.236a2.594 2.594 0 0 0-1.187.275 2.82 2.82 0 0 0-.888.734 4.83 4.83 0 0 0-.643 1.064 8 8 0 0 0-.446 1.245l-.058.216h-.516l-.057-.292v-1.596c-.005-.363-.076-.673-.214-.916a1.333 1.333 0 0 0-.554-.54 1.744 1.744 0 0 0-.821-.191c-.304 0-.579.064-.819.19a1.335 1.335 0 0 0-.557.543c-.137.242-.209.551-.213.917v11.628c-.005.336.049.648.16.929.099.252.271.451.525.61.254.162.625.245 1.104.25.478-.005.851-.089 1.109-.25.25-.156.42-.356.521-.61.111-.28.164-.591.16-.925v-4.85c0-1.18.102-2.101.311-2.814.22-.742.549-1.281.979-1.605.425-.326.945-.492 1.544-.492l.793.001c.317 0 .61-.059.87-.174.258-.112.469-.296.629-.549z"/><path fill="#0E2F5A" d="M102.906 117.785a4.382 4.382 0 0 0-1.585-.839 6.134 6.134 0 0 0-1.744-.25c-.808.005-1.482.113-2.051.32a5.312 5.312 0 0 0-1.558.873 7.258 7.258 0 0 0-1.253 1.312l-.087.118h-.439l-.058-.292v-.541a2.58 2.58 0 0 0-.172-.986 1.227 1.227 0 0 0-.5-.585c-.234-.145-.542-.219-.917-.219s-.683.073-.915.218a1.24 1.24 0 0 0-.504.589 2.577 2.577 0 0 0-.171.983v11.489c-.004.338.05.649.16.929.099.251.27.451.522.612.257.161.63.245 1.11.249.474-.004.847-.088 1.106-.25.25-.156.42-.356.521-.61.111-.281.164-.592.16-.925v-6.874c.006-.575.109-1.069.318-1.516a3.52 3.52 0 0 1 .814-1.119 3.663 3.663 0 0 1 1.11-.697 3.237 3.237 0 0 1 1.215-.239c.655.005 1.203.145 1.633.415.434.275.762.659.976 1.141.203.461.306 1.004.306 1.615v7.27c-.004.337.05.649.16.929.099.252.271.451.525.61.258.161.63.245 1.104.25.478-.005.851-.089 1.11-.25.254-.159.424-.358.518-.606.112-.284.166-.595.162-.929v-8.1c-.009-1.011-.158-1.86-.442-2.522-.289-.667-.67-1.195-1.134-1.573z"/><path fill="#0E2F5A" d="M87.131 116.941c-.26-.158-.635-.241-1.113-.245-.466.004-.849.09-1.103.246-.25.157-.422.358-.523.614a2.432 2.432 0 0 0-.16.925v11.493c-.005.336.049.648.16.929.099.252.271.451.525.61.254.162.625.245 1.104.25.478-.005.851-.089 1.11-.25.249-.156.419-.355.519-.61.111-.28.164-.591.16-.925v-11.492a2.448 2.448 0 0 0-.16-.929 1.245 1.245 0 0 0-.519-.616z"/><path fill="#0E2F5A" d="M86.936 111.328a1.822 1.822 0 0 0-1.83 0 1.835 1.835 0 0 0-.652.652 1.819 1.819 0 0 0 .652 2.481 1.812 1.812 0 1 0 1.83-3.133z"/></g></g></symbol><symbol id="icon-jekyll" viewBox="0 0 4000 2038"><title>jekyll logo</title><g fill-rule="evenodd" stroke-linejoin="round" class="nc-icon-wrapper"><g id="logo-bg-dark"><g id="test-tube"><path id="shadow_2_" d="M3343.38 334.846c-.629 2.529-.646 5.246-.112 8.116 0 0 8.604 57.117-1.163 82.538l-415.312 1079.88.033.013c-29.637 79.316 10.079 167.871 89.288 198.337 79.204 30.463 168.02-8.662 199.17-87.4l.038.017 415.312-1079.88c8.121-21.125 54.434-62.05 54.434-62.05 2.325-1.77 4.125-3.804 5.354-6.1l.204-.42c.225-.45.483-.884.662-1.354 10.709-27.846-58.366-80.33-154.283-117.217-95.921-36.892-182.362-44.221-193.071-16.375-.183.471-.283.962-.421 1.45l-.133.45z" fill-opacity=".3" fill-rule="nonzero"/><path id="tube_2_" d="M3331.38 325.667c-.633 2.529-.65 5.245-.113 8.116 0 0 8.605 57.117-1.166 82.538l-415.313 1079.88.038.012c-29.638 79.317 10.079 167.871 89.287 198.338 79.2 30.462 168.021-8.663 199.171-87.4l.038.017 415.312-1079.88c8.117-21.125 54.434-62.05 54.434-62.05 2.325-1.771 4.125-3.8 5.354-6.1l.2-.421c.225-.45.483-.883.662-1.354 10.709-27.846-58.366-80.329-154.279-117.216-95.921-36.892-182.362-44.221-193.071-16.375-.183.47-.283.962-.421 1.45l-.133.45z" fill="url(#_Linear1)" fill-rule="nonzero"/><path id="liquid" d="M3461.65 814.196l-299.5 778.75.196.075c-22.092 55.817-86.371 84.854-143.4 62.925-57.029-21.929-87.892-87.563-66.887-143.8l191.375-497.608s23.9-38.555 70.829-65.984c46.929-27.429 85.629-21.637 137.741-44.8 52.105-23.166 109.646-89.558 109.646-89.558z" fill="url(#_Linear2)" fill-rule="nonzero"/><path id="top" d="M3515.59 365.146c59.494 22.882 102.91 54.164 96.892 69.812-6.019 15.648-59.207 9.774-118.701-13.108-59.494-22.882-102.91-54.164-96.891-69.812 6.018-15.648 59.206-9.774 118.7 13.108z" fill="#333"/><path id="side-reflection" d="M3331.26 333.779s8.479 57.446-1.167 82.538l-415.313 1079.88.038.012c-29.638 79.317 10.079 167.871 89.287 198.338 13.746 5.287 27.775 8.425 41.75 9.683-53.387-40.166-76.3-112-51.804-177.546l-.037-.012 407.071-1058.46c0 .004-55.413-52.025-69.825-134.429z" fill="#fff" fill-opacity=".3" fill-rule="nonzero"/><g id="bubbles"><circle cx="3197.55" cy="1030.39" r="12.033" fill="#fff" fill-opacity=".5"/><circle cx="3276.43" cy="1117.65" r="18.142" fill="#fff" fill-opacity=".5"/><circle cx="3156.01" cy="1221.41" r="34.029" fill="#fff" fill-opacity=".5"/><circle cx="3100.91" cy="1284.34" r="18.142" fill="#fff" fill-opacity=".5"/><circle cx="3173.18" cy="1418.92" r="12.033" fill="#fff" fill-opacity=".5"/></g></g><g id="jekyll-text"><path d="M1055.77 964.025c18.395 14.7 51.504 6.125 73.579-18.379 23.3-25.729 26.979-58.813 8.587-73.517-18.4-14.704-51.508-6.125-73.583 19.604-23.3 25.73-26.979 57.588-8.583 72.292zm-53.959 47.788c-4.904 0-13.487 8.575-6.133 12.25 9.808 3.675 14.717 12.245 14.717 24.504-8.584 50.237-71.125 107.821-95.654 127.425-6.134 6.129 2.454 19.604 8.583 14.704 13.492-11.025 41.696-33.083 65-62.492-38.017 84.546-111.6 193.592-139.804 231.575-110.367 153.154-278.379 294.059-393.654 294.059-91.975 0-170.463-62.488-187.63-154.384-1.225-9.804-14.716-12.25-12.262 1.225 20.846 126.204 117.729 175.213 235.458 175.213 128.767 0 279.909-93.3 363.025-188.775 134.496-154.492 221.938-331.959 198.638-432.425-9.813-37.979-35.567-44.109-50.284-42.879zm827.413 335.958c35.562-8.579 64.996-28.479 64.996-59.258 0-3.075-6.134-3.075-6.134 0 0 18.47-20.845 33.529-44.145 37.204-55.188 8.579-164.33-56.142-215.838-122.309 55.188 20.834 168.008-9.687 220.742-47.67 49.054-35.53 68.675-74.684 72.354-106.538 6.129-52.692-51.508-83.287-131.221-52.658-51.504 20.829-112.821 66.175-176.592 150.716 67.45-111.495 199.892-292.829 329.884-409.225 158.196-140.904 250.175-113.945 107.916 35.538-58.862 61.262-169.233 140.904-245.266 175.212-23.3 9.805-12.263 23.28 4.904 15.93 80.937-35.534 188.858-109.046 253.85-170.313 192.537-185.012 31.883-324.692-181.496-128.65-144.708 133.554-239.137 273.229-321.3 454.567-28.208 34.304-49.054 62.487-74.808 84.541-3.038 2.684-5.471 5.296-7.475 7.792-70.821 60.688-181.992 142.617-251.075 143.6-49.054 1.225-69.9-35.529-61.317-83.317 13.488-74.741 90.75-162.958 156.971-193.587 85.846-39.208 136.121 36.754 23.3 98.017-42.925 22.054-94.429 34.304-115.279 34.304-24.529 0-22.075 9.804-1.225 11.025 34.337 1.225 89.525-13.475 126.312-30.634 115.275-55.133 122.634-158.058-2.454-161.729-136.121-4.904-299.225 111.496-298 257.3 1.225 66.167 53.958 101.696 126.313 101.696 120.325-1.092 227.95-92.833 315.945-173.517 12.634-10.504 24.838-22.054 37.034-34.237-30.659 78.412-46.6 150.704-39.242 204.617 4.908 39.208 26.983 57.583 44.15 72.291 3.679 2.45 11.038 0 6.129-7.354-25.754-30.633-18.396-121.525 17.171-209.742 29.438 58.825 144.713 133.346 264.896 106.388zm-144.708-255.638c141.029-126.2 196.212-13.475 106.691 55.134-46.604 35.533-138.579 62.491-168.008 45.337l-6.133-3.675c-3.68-6.129-7.359-12.254-9.809-18.379 23.3-28.179 50.279-53.908 77.259-78.417zm782.725-143.004c56.412 6.129 33.108-62.487-24.525-45.333-25.755 7.35-50.28 56.358-68.675 99.246-56.413 84.541-150.842 199.716-217.063 259.754-58.867 50.233-112.825 63.712-46.604-30.638 26.979-37.979 61.317-78.412 80.942-118.845 46.6-101.696-52.734-147.03-132.446-85.767-46.6 35.529-109.142 109.046-158.196 149.479-13.492 11.025-9.813 26.958 3.679 15.929 39.238-31.858 107.917-104.146 166.779-147.029 49.05-37.983 68.675-13.479 40.467 18.375-39.242 45.338-107.917 123.75-125.083 173.988-24.53 74.741 4.904 107.82 53.958 107.82 67.45 0 168.008-105.37 235.458-188.687 22.075-28.179 46.604-61.263 67.45-93.121-58.862 113.95-120.183 229.121-196.212 333.267-107.917 147.033-242.813 257.304-370.354 257.304-91.975 0-171.688-62.488-188.859-154.379-1.225-9.809-13.487-12.254-12.262 1.221 20.846 126.204 117.729 175.212 235.458 175.212 128.767 0 252.625-74.742 339.696-166.633 175.367-185.013 196.212-393.304 250.175-509.704 24.521-51.459 47.821-53.909 66.217-51.459zm712.875-178.396c25.754-44.108 24.529-78.416-35.559-78.416-45.379 1.225-127.541 33.079-165.558 62.487-8.588 8.579-4.908 13.479 6.133 8.579 7.359-2.45 15.942-7.354 24.529-11.025 42.921-23.279 25.755 25.73 15.938 44.109-51.504 89.441-142.254 215.641-190.079 278.129-22.913 30.767-48.746 61.496-73.613 87.621-46.058 43.687-137.012 121.091-205.833 147.137-223.192 83.317 61.317-296.508 84.621-327.141 52.729-66.167 170.462-181.338 206.021-238.925 25.758-44.109 24.529-78.417-35.559-78.417-45.379 1.225-127.537 33.079-165.554 62.487-8.587 8.58-4.908 13.475 6.129 8.58 7.363-2.45 15.942-7.355 24.529-11.025 42.921-23.28 25.755 25.729 15.942 44.108-51.504 89.442-142.258 215.646-190.083 278.133-39.242 52.688-87.067 105.371-123.863 134.779-14.712 12.25-6.133 23.28 8.588 13.475 13.487-8.579 33.108-28.183 55.183-51.462-40.467 80.867-73.579 194.817 33.113 208.292 90.916 12.429 199.016-80.355 268.916-149.075 7.704-7.292 16.154-15.859 25.084-25.175 2.1-2.146 4.154-4.246 6.137-6.28-40.396 80.846-73.279 194.517 33.267 207.975 116.504 15.925 261.212-140.904 317.621-198.495 11.037-11.025 7.358-29.405-11.034-11.025-33.112 34.308-144.708 136.004-225.646 166.637-223.191 83.313 61.317-296.512 84.617-327.146 52.721-66.162 170.45-181.337 206.013-238.921z" fill-rule="nonzero" opacity=".3"/><path d="M1043.99 952.246c18.396 14.704 51.504 6.129 73.579-18.379 23.3-25.73 26.979-58.813 8.587-73.517-18.396-14.704-51.508-6.125-73.583 19.604-23.304 25.734-26.979 57.592-8.583 72.292zm-53.963 47.787c-4.904 0-13.487 8.58-6.133 12.25 9.808 3.675 14.717 12.25 14.717 24.509-8.584 50.233-71.125 107.821-95.655 127.425-6.133 6.125 2.455 19.604 8.584 14.7 13.491-11.025 41.696-33.079 65-62.488-38.017 84.542-111.6 193.592-139.804 231.571-110.367 153.158-278.38 294.058-393.655 294.058-91.975 0-170.462-62.483-187.629-154.379-1.225-9.808-14.716-12.25-12.262 1.225 20.846 126.2 117.729 175.209 235.458 175.209 128.767 0 279.908-93.3 363.025-188.775 134.496-154.492 221.938-331.955 198.638-432.425-9.813-37.98-35.563-44.105-50.284-42.88zm827.413 335.963c35.562-8.579 64.996-28.479 64.996-59.258 0-3.08-6.134-3.08-6.134 0 0 18.466-20.846 33.525-44.146 37.2-55.187 8.579-164.329-56.138-215.837-122.305 55.187 20.83 168.008-9.691 220.742-47.67 49.054-35.534 68.675-74.688 72.354-106.542 6.129-52.688-51.509-83.288-131.221-52.658-51.504 20.829-112.821 66.179-176.592 150.72 67.45-111.5 199.892-292.829 329.884-409.229 158.195-140.904 250.175-113.946 107.92 35.538-58.866 61.262-169.237 140.904-245.27 175.212-23.3 9.804-12.263 23.279 4.904 15.925 80.941-35.529 188.858-109.046 253.854-170.308 192.533-185.013 31.883-324.692-181.5-128.65-144.708 133.554-239.138 273.229-321.3 454.571-28.208 34.304-49.054 62.487-74.808 84.541-3.038 2.68-5.471 5.292-7.475 7.788-70.821 60.692-181.988 142.617-251.075 143.604-49.055 1.225-69.9-35.533-61.317-83.317 13.487-74.741 90.75-162.958 156.971-193.591 85.846-39.209 136.121 36.754 23.3 98.016-42.921 22.059-94.429 34.309-115.275 34.309-24.525 0-22.075 9.804-1.225 11.025 34.337 1.225 89.525-13.479 126.312-30.638 115.275-55.133 122.634-158.058-2.454-161.729-136.125-4.9-299.225 111.5-298 257.304 1.225 66.163 53.958 101.696 126.313 101.696 120.325-1.096 227.95-92.837 315.941-173.517 12.634-10.508 24.838-22.054 37.034-34.241-30.659 78.416-46.6 150.708-39.242 204.616 4.908 39.209 26.983 57.588 44.15 72.292 3.679 2.45 11.037 0 6.129-7.35-25.754-30.633-18.396-121.525 17.171-209.742 29.437 58.821 144.717 133.338 264.896 106.388zm-144.704-255.638c141.029-126.2 196.212-13.475 106.691 55.134-46.6 35.533-138.575 62.487-168.008 45.333l-6.133-3.675c-3.68-6.125-7.359-12.25-9.809-18.375 23.296-28.179 50.275-53.912 77.259-78.417zm782.725-143.004c56.408 6.125 33.108-62.491-24.53-45.333-25.754 7.35-50.279 56.362-68.675 99.246-56.408 84.541-150.837 199.716-217.062 259.754-58.863 50.237-112.821 63.712-46.6-30.633 26.979-37.984 61.317-78.417 80.937-118.846 46.6-101.696-52.733-147.029-132.445-85.767-46.6 35.529-109.142 109.046-158.196 149.479-13.492 11.025-9.813 26.954 3.679 15.925 39.242-31.858 107.917-104.146 166.779-147.029 49.054-37.983 68.675-13.475 40.471 18.379-39.242 45.334-107.917 123.75-125.088 173.988-24.529 74.741 4.905 107.821 53.955 107.821 67.45 0 168.008-105.371 235.458-188.688 22.075-28.183 46.604-61.262 67.45-93.121-58.867 113.95-120.183 229.121-196.217 333.267-107.912 147.029-242.812 257.3-370.354 257.3-91.975 0-171.687-62.483-188.854-154.379-1.229-9.804-13.492-12.25-12.267 1.225 20.846 126.2 117.729 175.208 235.459 175.208 128.766 0 252.625-74.742 339.695-166.629 175.367-185.013 196.217-393.308 250.175-509.704 24.53-51.463 47.834-53.917 66.23-51.463zm712.87-178.4c25.755-44.108 24.525-78.416-35.562-78.416-45.375 1.225-127.538 33.079-165.554 62.487-8.588 8.579-4.909 13.479 6.133 8.579 7.358-2.45 15.942-7.35 24.525-11.025 42.925-23.279 25.758 25.729 15.942 44.109-51.504 89.441-142.259 215.645-190.084 278.133-22.912 30.762-48.745 61.492-73.612 87.621-46.054 43.687-137.013 121.091-205.829 147.137-223.196 83.317 61.316-296.512 84.616-327.146 52.734-66.162 170.463-181.337 206.025-238.925 25.755-44.108 24.525-78.416-35.562-78.416-45.375 1.225-127.538 33.079-165.554 62.487-8.588 8.579-4.909 13.475 6.133 8.579 7.358-2.45 15.942-7.354 24.529-11.025 42.921-23.279 25.754 25.73 15.938 44.109-51.504 89.441-142.259 215.641-190.079 278.129-39.242 52.687-87.071 105.371-123.867 134.779-14.713 12.25-6.129 23.283 8.592 13.479 13.487-8.583 33.108-28.183 55.183-51.466-40.471 80.866-73.579 194.816 33.108 208.295 90.917 12.425 199.017-80.358 268.921-149.075 7.704-7.295 16.154-15.858 25.083-25.175 2.1-2.15 4.15-4.245 6.134-6.283-40.396 80.85-73.279 194.517 33.271 207.975 116.504 15.925 261.208-140.904 317.62-198.492 11.034-11.025 7.359-29.408-11.037-11.025-33.108 34.305-144.704 136.005-225.642 166.634-223.196 83.312 61.317-296.513 84.617-327.146 52.721-66.159 170.45-181.329 206.012-238.917z" fill="url(#_Linear3)" fill-rule="nonzero"/><path d="M1043.99 952.246c18.396 14.704 51.504 6.129 73.579-18.379 23.3-25.73 26.979-58.813 8.587-73.517-18.396-14.704-51.508-6.125-73.583 19.604-23.304 25.734-26.979 57.592-8.583 72.292zm-53.963 47.787c-4.904 0-13.487 8.58-6.133 12.25 9.808 3.675 14.717 12.25 14.717 24.509-8.584 50.233-71.125 107.821-95.655 127.425-6.133 6.125 2.455 19.604 8.584 14.7 13.491-11.025 41.696-33.079 65-62.488-38.017 84.542-111.6 193.592-139.804 231.571-110.367 153.158-278.38 294.058-393.655 294.058-91.975 0-170.462-62.483-187.629-154.379-1.225-9.808-14.716-12.25-12.262 1.225 20.846 126.2 117.729 175.209 235.458 175.209 128.767 0 279.908-93.3 363.025-188.775 134.496-154.492 221.938-331.955 198.638-432.425-9.813-37.98-35.563-44.105-50.284-42.88zm827.413 335.963c35.562-8.579 64.996-28.479 64.996-59.258 0-3.08-6.134-3.08-6.134 0 0 18.466-20.846 33.525-44.146 37.2-55.187 8.579-164.329-56.138-215.837-122.305 55.187 20.83 168.008-9.691 220.742-47.67 49.054-35.534 68.675-74.688 72.354-106.542 6.129-52.688-51.509-83.288-131.221-52.658-51.504 20.829-112.821 66.179-176.592 150.72 67.45-111.5 199.892-292.829 329.884-409.229 158.195-140.904 250.175-113.946 107.92 35.538-58.866 61.262-169.237 140.904-245.27 175.212-23.3 9.804-12.263 23.279 4.904 15.925 80.941-35.529 188.858-109.046 253.854-170.308 192.533-185.013 31.883-324.692-181.5-128.65-144.708 133.554-239.138 273.229-321.3 454.571-28.208 34.304-49.054 62.487-74.808 84.541-3.038 2.68-5.471 5.292-7.475 7.788-70.821 60.692-181.988 142.617-251.075 143.604-49.055 1.225-69.9-35.533-61.317-83.317 13.487-74.741 90.75-162.958 156.971-193.591 85.846-39.209 136.121 36.754 23.3 98.016-42.921 22.059-94.429 34.309-115.275 34.309-24.525 0-22.075 9.804-1.225 11.025 34.337 1.225 89.525-13.479 126.312-30.638 115.275-55.133 122.634-158.058-2.454-161.729-136.125-4.9-299.225 111.5-298 257.304 1.225 66.163 53.958 101.696 126.313 101.696 120.325-1.096 227.95-92.837 315.941-173.517 12.634-10.508 24.838-22.054 37.034-34.241-30.659 78.416-46.6 150.708-39.242 204.616 4.908 39.209 26.983 57.588 44.15 72.292 3.679 2.45 11.037 0 6.129-7.35-25.754-30.633-18.396-121.525 17.171-209.742 29.437 58.821 144.717 133.338 264.896 106.388zm-144.704-255.638c141.029-126.2 196.212-13.475 106.691 55.134-46.6 35.533-138.575 62.487-168.008 45.333l-6.133-3.675c-3.68-6.125-7.359-12.25-9.809-18.375 23.296-28.179 50.275-53.912 77.259-78.417zm782.725-143.004c56.408 6.125 33.108-62.491-24.53-45.333-25.754 7.35-50.279 56.362-68.675 99.246-56.408 84.541-150.837 199.716-217.062 259.754-58.863 50.237-112.821 63.712-46.6-30.633 26.979-37.984 61.317-78.417 80.937-118.846 46.6-101.696-52.733-147.029-132.445-85.767-46.6 35.529-109.142 109.046-158.196 149.479-13.492 11.025-9.813 26.954 3.679 15.925 39.242-31.858 107.917-104.146 166.779-147.029 49.054-37.983 68.675-13.475 40.471 18.379-39.242 45.334-107.917 123.75-125.088 173.988-24.529 74.741 4.905 107.821 53.955 107.821 67.45 0 168.008-105.371 235.458-188.688 22.075-28.183 46.604-61.262 67.45-93.121-58.867 113.95-120.183 229.121-196.217 333.267-107.912 147.029-242.812 257.3-370.354 257.3-91.975 0-171.687-62.483-188.854-154.379-1.229-9.804-13.492-12.25-12.267 1.225 20.846 126.2 117.729 175.208 235.459 175.208 128.766 0 252.625-74.742 339.695-166.629 175.367-185.013 196.217-393.308 250.175-509.704 24.53-51.463 47.834-53.917 66.23-51.463zm712.87-178.4c25.755-44.108 24.525-78.416-35.562-78.416-45.375 1.225-127.538 33.079-165.554 62.487-8.588 8.579-4.909 13.479 6.133 8.579 7.358-2.45 15.942-7.35 24.525-11.025 42.925-23.279 25.758 25.729 15.942 44.109-51.504 89.441-142.259 215.645-190.084 278.133-22.912 30.762-48.745 61.492-73.612 87.621-46.054 43.687-137.013 121.091-205.829 147.137-223.196 83.317 61.316-296.512 84.616-327.146 52.734-66.162 170.463-181.337 206.025-238.925 25.755-44.108 24.525-78.416-35.562-78.416-45.375 1.225-127.538 33.079-165.554 62.487-8.588 8.579-4.909 13.475 6.133 8.579 7.358-2.45 15.942-7.354 24.529-11.025 42.921-23.279 25.754 25.73 15.938 44.109-51.504 89.441-142.259 215.641-190.079 278.129-39.242 52.687-87.071 105.371-123.867 134.779-14.713 12.25-6.129 23.283 8.592 13.479 13.487-8.583 33.108-28.183 55.183-51.466-40.471 80.866-73.579 194.816 33.108 208.295 90.917 12.425 199.017-80.358 268.921-149.075 7.704-7.295 16.154-15.858 25.083-25.175 2.1-2.15 4.15-4.245 6.134-6.283-40.396 80.85-73.279 194.517 33.271 207.975 116.504 15.925 261.208-140.904 317.62-198.492 11.034-11.025 7.359-29.408-11.037-11.025-33.108 34.305-144.704 136.005-225.642 166.634-223.196 83.312 61.317-296.513 84.617-327.146 52.721-66.159 170.45-181.329 206.012-238.917z" fill="#fff" fill-rule="nonzero" opacity=".75"/><g id="highlight"><path d="M2757.35 1174.55c-.583.608-1.142 1.179-1.717 1.779-17.483 38.096-31.633 81.021-30.5 116.721 1.229-39.304 18.892-85.838 38.35-124.779-1.983 2.033-4.033 4.129-6.133 6.279z" fill="#fff" fill-rule="nonzero"/><path d="M2422.22 1148.9c-17.484 38.092-31.63 81.021-30.492 116.717 1.229-39.413 18.992-86.105 38.513-125.117a1586.718 1586.718 0 0 1-8.021 8.4z" fill="#fff" fill-rule="nonzero"/><path d="M2965.28 753.504a28.942 28.942 0 0 1 1.942-2.15c38.016-29.404 120.183-61.262 165.554-62.487 34.287 0 49.392 11.183 51.267 28.975 2.208-22.571-11.888-37.309-51.267-37.309-45.375 1.225-127.538 33.08-165.554 62.488-5.888 5.887-6.009 10.037-1.942 10.483z" fill="#fff" fill-rule="nonzero"/><path d="M3103.34 1158.39c-33.109 34.304-144.705 136.004-225.642 166.633-59.188 22.096-82.667 11.612-84.792-16.279-1.925 33.941 20.05 48.779 84.792 24.612 80.937-30.633 192.533-132.329 225.642-166.633 8.945-8.942 14.383-9.15 16.37-5.775 3.113-9.192-2.325-16.592-16.37-2.558z" fill="#fff" fill-rule="nonzero"/><path d="M2366.46 1178.48c36.791-29.408 84.624-82.091 123.866-134.779 47.825-62.487 138.575-188.687 190.079-278.129 5.546-10.383 13.429-30.537 11.509-41.917-1.355 11.23-7.15 25.421-11.509 33.584-51.504 89.441-142.258 215.641-190.079 278.129-39.242 52.687-87.071 105.371-123.867 134.779-7.845 6.533-9.024 12.688-6.22 15.55 1.204-2.246 3.2-4.7 6.22-7.217z" fill="#fff" fill-rule="nonzero"/><path d="M2631.87 726.063a30.328 30.328 0 0 1 1.941-2.146c38.017-29.409 120.184-61.263 165.555-62.488 34.287 0 49.391 11.183 51.27 28.975 2.205-22.571-11.891-37.308-51.27-37.308-45.375 1.225-127.538 33.079-165.555 62.487-5.887 5.88-6.004 10.029-1.941 10.479z" fill="#fff" fill-rule="nonzero"/><path d="M3013.81 793.017c5.541-10.384 13.429-30.538 11.508-41.913-1.354 11.229-7.15 25.421-11.508 33.579-51.505 89.442-142.259 215.646-190.084 278.134-22.912 30.762-48.746 61.491-73.612 87.621-46.054 43.687-137.013 121.091-205.829 147.137-59.188 22.092-82.667 11.612-84.788-16.279-1.925 33.942 20.05 48.779 84.788 24.612 68.82-26.05 159.779-103.45 205.829-147.137 24.866-26.129 50.7-56.859 73.612-87.621 47.829-62.487 138.579-188.688 190.084-278.133z" fill="#fff" fill-rule="nonzero"/><g><path d="M2145.2 1251.02c-37.025 31.6-72.088 48.629-76.542 33.45-5.375 28.029 34.317 10.916 76.542-25.117 66.225-60.037 160.654-175.212 217.062-259.754 18.396-42.884 42.925-91.896 68.675-99.246 31.755-9.45 53.042 7.129 56.367 22.904 4.083-17.246-18.854-42.4-56.367-31.237-25.754 7.35-50.279 56.362-68.675 99.245-56.412 84.542-150.841 199.717-217.062 259.755z" fill="#fff" fill-rule="nonzero"/><path d="M2112.29 1030.88c-1.363 6.18-5.425 13.679-12.471 21.642-39.242 45.333-107.917 123.75-125.088 173.987-6.625 20.188-9.283 37.309-8.712 51.588.55-12.475 3.329-26.858 8.712-43.254 17.167-50.238 85.846-128.654 125.088-173.988 10.658-12.033 14.479-23.012 12.471-29.975z" fill="#fff" fill-rule="nonzero"/><path d="M1888.89 1173.58c49.054-40.433 111.596-113.95 158.196-149.479 64.25-49.383 141.195-29.475 144.245 33.346 3.625-69.333-77.229-93.183-144.246-41.679-46.6 35.529-109.141 109.046-158.195 149.479-7.963 6.508-9.909 14.683-7.421 18.058 1.246-3.162 3.633-6.633 7.421-9.725z" fill="#fff" fill-rule="nonzero"/><path d="M1564.41 1492.59c2.288-6.675 10.759-3.609 11.767 4.458 17.167 91.896 96.879 154.379 188.854 154.379 127.538 0 262.438-110.271 370.354-257.3 76.034-104.146 137.35-219.321 196.217-333.267-5.879 8.98-12.067 18.059-18.392 27.101-53.341 102.254-109.662 204.474-177.825 297.833-107.912 147.029-242.812 257.3-370.354 257.3-91.975 0-171.687-62.484-188.854-154.379-1.229-9.805-13.492-12.25-12.267 1.225.154.9.342 1.754.5 2.65z" fill="#fff" fill-rule="nonzero"/></g><g><path d="M1335.7 1165.58c-42.921 22.059-94.429 34.309-115.275 34.309-19.567 0-21.921 6.229-11.504 9.37 2.816-.633 6.596-1.037 11.504-1.037 20.846 0 72.354-12.25 115.275-34.308 49.621-26.942 67.683-56.725 65.054-78.309-2.312 20.55-21.546 46.35-65.054 69.975z" fill="#fff" fill-rule="nonzero"/><path d="M1519.27 1183.14c-23.084 61.925-36.459 119.479-35.863 166.52 1.042-48.879 16.188-108.2 40.946-171.525-1.692 1.692-3.392 3.342-5.083 5.005z" fill="#fff" fill-rule="nonzero"/><path d="M1153.68 1285.47c-1.625 39.729 19.65 68.421 63.067 67.337 69.087-.987 180.254-82.908 251.075-143.604 2-2.5 4.433-5.112 7.475-7.787 25.754-22.055 46.6-50.238 74.808-84.542 82.167-181.338 176.592-321.017 321.3-454.571 143.713-132.033 263.492-111.775 267.575-27.95 3.6-90.675-119.217-116.679-267.575 19.617-144.708 133.554-239.137 273.229-321.3 454.571-28.208 34.304-49.054 62.487-74.808 84.541-3.038 2.679-5.471 5.292-7.475 7.788-70.821 60.691-181.988 142.617-251.075 143.604-40.317 1.004-61.538-23.667-63.067-59.004z" fill="#fff" fill-rule="nonzero"/><path d="M1794.14 937.004c-13.454 5.659-15.425 12.525-11.409 15.913 1.988-2.505 5.638-5.154 11.409-7.579 76.033-34.309 186.404-113.95 245.271-175.213 52.695-55.379 73.225-93.921 70.175-113.363-2.692 21.18-24.176 56.688-70.176 105.03-58.866 61.262-169.237 140.904-245.27 175.212z" fill="#fff" fill-rule="nonzero"/><path d="M1779.42 1143.83c31.525-24.166 45.083-53.787 43.288-76.529-1.655 21.338-15.488 46.892-43.288 68.196-46.6 35.533-138.575 62.487-168.008 45.333l-6.134-3.675c-2.595-4.316-5.166-8.637-7.329-12.954-.821.971-1.666 1.929-2.479 2.913 2.454 6.125 6.133 12.25 9.808 18.375l6.134 3.675c29.433 17.154 121.408-9.8 168.008-45.334z" fill="#fff" fill-rule="nonzero"/><path d="M1876.3 1275c0 20.833-20.846 34.396-44.146 38.071-52.066 8.092-152.137-48.625-206.546-110.675-3.237-.821-6.362-1.538-9.291-2.642 51.508 66.163 160.65 130.992 215.837 122.413 23.3-3.679 44.146-18.679 44.146-37.15 0-2.513 4.046-3.775 5.546-2.184.346-2.27.587-3.662.587-7.829h-6.133V1275z" fill="#fff" fill-rule="nonzero"/><path d="M1343.06 1026.89c59.05 1.737 88.55 25.595 91.15 56.095 2.388-34.383-26.825-62.537-91.15-64.429-136.125-4.9-299.225 111.5-298 257.304.009.5.05.98.063 1.475 3.837-142.575 163.954-255.266 297.937-250.445z" fill="#fff" fill-rule="nonzero"/><path d="M1778.2 984.763c-44.888 18.154-97.233 54.954-152.158 120.075-8.85 13.695-17.05 26.774-24.434 38.975 63.771-84.542 125.088-129.892 176.592-150.721 73.629-28.296 128.383-4.325 131.488 41.016 3.366-50.633-53.467-79.329-131.488-49.345z" fill="#fff" fill-rule="nonzero"/><path d="M1520.12 1381.97c-.479 28.958 4.337 52.142 14.8 65.108 2.125-1.054 3.204-3.625.466-7.721-9.762-11.612-14.754-31.891-15.266-57.387z" fill="#fff" fill-rule="nonzero"/></g><g><path d="M983.342 1011.94c1.908-2.038 4.621-3.571 6.687-3.571 14.717-1.225 40.471 4.9 50.279 42.883 2.171 9.363 3.375 19.396 3.675 30.013.209-13.721-.945-26.58-3.675-38.346-9.808-37.984-35.562-44.109-50.279-42.884-4.762 0-12.946 8.071-6.687 11.905z" fill="#fff" fill-rule="nonzero"/><path d="M243.542 1490.77c2.396-5.6 10.946-2.479 11.912 5.246 17.167 91.896 95.654 154.379 187.629 154.379 115.28 0 283.288-140.9 393.655-294.058 28.208-37.98 101.787-147.03 139.804-231.571a269.503 269.503 0 0 1-8.963 10.712c-39.662 81.179-104.708 177.342-130.842 212.525-110.366 153.159-278.379 294.059-393.654 294.059-91.975 0-170.462-62.484-187.629-154.38-1.225-9.808-14.717-12.25-12.262 1.225.104.63.237 1.234.35 1.863z" fill="#fff" fill-rule="nonzero"/><path d="M902.958 1172.55c24.53-19.604 87.071-77.192 95.655-127.425 0-2.104-.196-4.058-.488-5.938-10.108 49.659-71.029 105.734-95.167 125.03-2.616 2.616-2.541 6.566-1.129 9.862.309-.541.663-1.062 1.129-1.529z" fill="#fff" fill-rule="nonzero"/></g><path d="M1052.58 888.292c22.075-25.73 55.188-34.309 73.583-19.605 6.804 5.442 10.571 13.405 11.459 22.571 1.033-12.625-2.663-23.875-11.459-30.904-18.396-14.704-51.508-6.125-73.583 19.604-14.7 16.234-21.567 34.892-20.033 50.159 1.158-13.421 7.912-28.446 20.033-41.825z" fill="#fff" fill-rule="nonzero"/></g></g></g><defs><linearGradient id="_Linear1" x1="0" y1="0" x2="1" y2="0" gradientUnits="userSpaceOnUse" gradientTransform="scale(372.153) rotate(21.034 -2.727 23.646)"><stop offset="0" stop-color="#919191" stop-opacity="1"/><stop offset="1" stop-color="#fff" stop-opacity="1"/></linearGradient><linearGradient id="_Linear2" x1="0" y1="0" x2="1" y2="0" gradientUnits="userSpaceOnUse" gradientTransform="scale(225.3003) rotate(21.034 -7.197 39.45)"><stop offset="0" stop-color="#900" stop-opacity="1"/><stop offset="1" stop-color="#e80000" stop-opacity="1"/></linearGradient><linearGradient id="_Linear3" x1="0" y1="0" x2="1" y2="0" gradientUnits="userSpaceOnUse" gradientTransform="rotate(-90 1689.365 -24.215) scale(1106.13)"><stop offset="0" stop-color="#919191" stop-opacity="1"/><stop offset="1" stop-color="#fff" stop-opacity="1"/></linearGradient></defs></g></symbol></svg>
