<?xml version="1.0" encoding="UTF-8"?><svg version="1.1" viewBox="0 0 100 112" xmlns="http://www.w3.org/2000/svg" xmlns:xlink="http://www.w3.org/1999/xlink"><!--Generated by IJSVG (https://github.com/iconjar/IJSVG)--><defs><path d="M60,86.51h-22.14l1.55504e-08,7.4948e-11c-2.91603,-0.0140537 -5.26855,-2.38936 -5.25449,-5.30539c0.00457712,-0.949714 0.265229,-1.88061 0.754492,-2.69461l8.34,-13.68l-8.10055e-08,1.30534e-07c0.838944,-1.35189 1.28877,-2.90899 1.3,-4.5v-9.46h11.85v9.46l-3.32825e-07,-0.000162197c0.00324098,1.58663 0.438819,3.14238 1.25992,4.50002l8.35,13.65l1.06024e-07,1.73745e-07c1.51898,2.4892 0.732452,5.73848 -1.75675,7.25745c-0.814664,0.497129 -1.74884,0.764158 -2.70316,0.772687Z" id="a"></path><path d="M54.85,50.87h-1.15398e-07c1.45803,6.37326e-08 2.64,-1.18197 2.64,-2.64c6.37326e-08,-1.45803 -1.18197,-2.64 -2.64,-2.64h-11.85h-1.15398e-07c-1.45803,6.37326e-08 -2.64,1.18197 -2.64,2.64c6.37326e-08,1.45803 1.18197,2.64 2.64,2.64Z" id="b"></path></defs><path d="M90.5,56.5l1.75431e-07,0.00374627c-1.42109e-14,-22.0914 -17.9086,-40 -40,-40c-22.0914,7.10543e-15 -40,17.9086 -40,40c0,5.68809 1.21314,11.3108 3.55846,16.4928h72.8815l6.1272e-07,-1.35057e-06c2.35079,-5.18164 3.56467,-10.8066 3.56,-16.4966Z" fill="#E8F4FA"></path><path fill="#FFF" d="M14.06,73l-2.10036e-06,-4.63966e-06c9.11063,20.1253 32.811,29.0544 52.9363,19.9438c8.84893,-4.00588 15.9379,-11.0948 19.9437,-19.9437Z"></path><g stroke-linecap="round" stroke-width="1" stroke="#191816" fill="none" stroke-linejoin="round"><path d="M11,73h78"></path><path d="M6.5,73h2.5"></path><path d="M91,73h2.5"></path></g><use fill="#E5F8FF" xlink:href="#a"></use><path d="M36.16,78.48l8.34,-13.66l3.28757e-07,-5.35364e-07c0.829511,-1.35082 1.26906,-2.90482 1.27,-4.49v-9.46h-2.77v9.46l-3.53553e-08,5.94648e-05c-0.000947969,1.58518 -0.44051,3.13918 -1.27003,4.48999l-8.36997,13.66l-1.04909e-07,1.7454e-07c-1.50225,2.49934 -0.69395,5.74326 1.80539,7.24551c0.814002,0.489264 1.7449,0.749915 2.69461,0.754492h2.8l-1.8809e-07,-9.06482e-10c-2.91603,-0.0140537 -5.26855,-2.38936 -5.25449,-5.30539c0.00457712,-0.949715 0.265229,-1.88061 0.754492,-2.69461Z" fill="#FFF"></path><path opacity="0.15" fill="#191816" d="M62.434,86.9633c7.47463,0.644365 7.47463,1.68909 0,2.33345c-7.47463,0.644365 -19.5934,0.644365 -27.068,0c-7.47463,-0.644365 -7.47463,-1.68909 0,-2.33345c7.47463,-0.644365 19.5934,-0.644365 27.068,0"></path><use xlink:href="#b" fill="#B8ECFF"></use><path fill="#6DD627" d="M60.5,72h-23.18l-4,6.49l-1.04909e-07,1.7454e-07c-1.50225,2.49934 -0.69395,5.74326 1.80539,7.24551c0.814002,0.489264 1.7449,0.749915 2.69461,0.754492h22.18l-2.25909e-08,6.61942e-11c2.91605,-0.00854371 5.27305,-2.3794 5.26451,-5.29545c-0.00279246,-0.953092 -0.263514,-1.88766 -0.754508,-2.70455Z"></path><path d="M40.12,72h-2.8l-1,1.64l-3,4.85l-1.04909e-07,1.7454e-07c-1.50225,2.49934 -0.69395,5.74326 1.80539,7.24551c0.814002,0.489264 1.7449,0.749915 2.69461,0.754492h2.8l1.55504e-08,7.4948e-11c-2.91603,-0.0140537 -5.26855,-2.38936 -5.25449,-5.30539c0.00457712,-0.949714 0.265229,-1.88061 0.754492,-2.69461Z" fill="#9CEB60"></path><path fill="#B8ECFF" d="M42.97,50.87h11.88v1.98h-11.88Z"></path><use xlink:href="#a" stroke-linecap="round" stroke-width="1" stroke="#191816" fill="none" stroke-linejoin="round"></use><path fill="#FFF" d="M54.85,45.59h-11.85h-1.15398e-07c-1.45803,6.37326e-08 -2.64,1.18197 -2.64,2.64c0,0 0,7.10543e-15 0,7.10543e-15h17.13v-1.15398e-07c0,-1.45803 -1.18197,-2.64 -2.64,-2.64c-3.57617e-08,0 -7.96364e-08,0 -1.15398e-07,0Z"></path><g stroke-linecap="round" stroke-width="1" stroke="#191816" fill="none" stroke-linejoin="round"><use xlink:href="#b"></use><path d="M46.27,64.07h5.28"></path><path d="M46.27,68.03h5.28"></path><path d="M46.27,75.95h5.28"></path><path d="M46.27,79.91h5.28"></path><path d="M37.32,71.99h23.18"></path><path stroke="#00AED9" d="M72.66,56.48v-0.99"></path><path stroke="#00AED9" d="M74.76,57.35l0.7,-0.7"></path><path stroke="#00AED9" d="M75.63,59.45h0.99"></path><path stroke="#00AED9" d="M74.76,61.55l0.7,0.7"></path><path stroke="#00AED9" d="M72.66,62.42v0.99"></path><path stroke="#00AED9" d="M70.56,61.55l-0.7,0.7"></path><path stroke="#00AED9" d="M69.69,59.45h-0.99"></path><path stroke="#00AED9" d="M70.56,57.35l-0.7,-0.7"></path><path stroke="#00AED9" d="M62.76,35.03v-5.28"></path><path stroke="#00AED9" d="M60.12,32.39h5.28"></path><path stroke="#00AED9" d="M27.12,62.31v-5.28"></path><path stroke="#00AED9" d="M24.48,59.67h5.28"></path><path stroke="#00AED9" d="M29.76,31.07v-2.64"></path><path stroke="#00AED9" d="M28.44,29.75h2.64"></path><path stroke="#00AED9" d="M79.92,45.59v-2.64"></path><path stroke="#00AED9" d="M78.6,44.27h2.64"></path><path stroke="#00AED9" d="M17.88,53.73v-2.64"></path><path stroke="#00AED9" d="M16.56,52.41h2.64"></path><path stroke="#FF4064" d="M64.81,46.2l7.63858e-09,-1.43395e-08c-0.104889,0.196903 -0.104889,0.433097 -4.05218e-08,0.63l-1.66207e-08,-2.70302e-08c0.115257,0.187442 0.319961,0.301166 0.54,0.3h5.34l3.27456e-08,1.73515e-10c0.220039,0.00116595 0.424743,-0.112558 0.54,-0.3l2.11496e-08,-3.97031e-08c0.104889,-0.196903 0.104889,-0.433097 -1.70547e-08,-0.63l-2.67,-5l-1.03622e-08,-1.87285e-08c-0.171119,-0.309279 -0.560559,-0.42128 -0.869839,-0.250161c-0.105236,0.0582253 -0.191936,0.144925 -0.250161,0.250161Z"></path><path stroke="#48CF3E" d="M46.79,39.61l4.40648e-07,1.33247e-07c-6.23829,-1.88638 -9.76932,-8.46958 -7.89,-14.71l-2.45521e-07,8.13879e-07c1.50656,-4.99412 6.77479,-7.82294 11.77,-6.32l-1.89662e-07,-5.89264e-08c3.97104,1.23377 6.20347,5.43968 5,9.42l-1.11265e-07,3.69844e-07c-0.954638,3.17322 -4.30093,4.97174 -7.47415,4.0171c-0.0186444,-0.00560901 -0.0372613,-0.0113087 -0.0558502,-0.017099l3.53997e-08,1.14103e-08c-2.50824,-0.808476 -3.90545,-3.47829 -3.14,-6l-7.02048e-08,2.3319e-07c0.614563,-2.04131 2.76758,-3.19793 4.80889,-2.58336c0.0037045,0.00111529 0.00740732,0.00223614 0.0111085,0.00336256l-2.11851e-08,-6.35964e-09c1.62921,0.48908 2.55347,2.20629 2.06439,3.8355c-0.0014516,0.00483554 -0.00291509,0.00966751 -0.00439045,0.0144959l-1.14157e-08,3.83355e-08c-0.389325,1.30741 -1.7648,2.05166 -3.0722,1.66234c-0.00259974,-0.00077416 -0.0051982,-0.0015526 -0.00779537,-0.00233532"></path><path stroke="#FFB700" d="M21.31,39.89h1.21l-5.7699e-08,-7.10543e-15c0.729016,-3.18663e-08 1.32,0.590984 1.32,1.32c0,0 0,0 0,0v1.1l1.42109e-14,-1.99314e-07c-1.10078e-07,0.729016 0.590984,1.32 1.32,1.32h1.09l2.43397e-08,-1.74722e-11c0.729016,-0.00052329 1.32042,0.590036 1.32095,1.31905c1.21934e-05,0.0169872 -0.000303527,0.033973 -0.000946986,0.0509479v1l1.42109e-14,-1.99314e-07c-1.10078e-07,0.729016 0.590984,1.32 1.32,1.32h1.11h-5.7699e-08c0.729016,-3.18663e-08 1.32,0.590984 1.32,1.32c0,0 0,0 0,0v1.09l1.42109e-14,-1.99314e-07c-1.10078e-07,0.729016 0.590984,1.32 1.32,1.32h1.09"></path></g></svg>